<svg width="19" height="19" viewBox="0 0 19 19" fill="none" xmlns="http://www.w3.org/2000/svg">
<path fill-rule="evenodd" clip-rule="evenodd" d="M12.4171 3.03323C13.1098 2.23049 13.5766 1.11243 13.4489 0C12.4508 0.038 11.2432 0.637589 10.5276 1.43938C9.88491 2.15092 9.3239 3.28785 9.47472 4.37844C10.5881 4.46108 11.7245 3.83691 12.4171 3.03323ZM14.9138 10.0938C14.9417 12.9694 17.546 13.9259 17.5748 13.9383C17.5537 14.0057 17.1588 15.3013 16.203 16.6408C15.3759 17.7979 14.5181 18.9503 13.1664 18.975C11.8388 18.9987 11.4114 18.2207 9.89259 18.2207C8.37479 18.2207 7.90024 18.9502 6.64372 18.9986C5.33918 19.0452 4.34492 17.7467 3.51205 16.5935C1.80788 14.2346 0.506217 9.92758 2.25458 7.02063C3.12299 5.5776 4.67442 4.6624 6.35937 4.6396C7.6399 4.61585 8.84934 5.46528 9.63226 5.46528C10.4152 5.46528 11.885 4.44404 13.4297 4.59414C14.0762 4.61979 15.8918 4.84391 17.057 6.47883C16.9629 6.53488 14.8908 7.69029 14.9138 10.0938Z" fill="white"/>
</svg>
