<svg width="75" height="74" viewBox="0 0 75 74" fill="none" xmlns="http://www.w3.org/2000/svg">
<g clip-path="url(#clip0_831_871)">
<mask id="mask0_831_871" style="mask-type:luminance" maskUnits="userSpaceOnUse" x="-6" y="-7" width="88" height="88">
<path d="M82 -7H-6V81H82V-7Z" fill="white"/>
</mask>
<g mask="url(#mask0_831_871)">
<path d="M11.7921 19.3587C11.7921 17.2193 12.6419 15.1675 14.1547 13.6547C15.6675 12.1419 17.7193 11.2921 19.8587 11.2921H23.5254C25.6553 11.2908 27.6984 10.4473 29.2087 8.9454L31.7754 6.3787C32.525 5.6249 33.4163 5.0266 34.3979 4.6184C35.3796 4.2102 36.4322 4 37.4954 4C38.5585 4 39.6112 4.2102 40.5928 4.6184C41.5745 5.0266 42.4657 5.6249 43.2154 6.3787L45.7821 8.9454C47.2927 10.4487 49.3387 11.2921 51.4654 11.2921H55.132C57.2715 11.2921 59.3233 12.1419 60.836 13.6547C62.3488 15.1675 63.1987 17.2193 63.1987 19.3587V23.0254C63.1987 25.1521 64.0421 27.1981 65.5454 28.7087L68.1121 31.2754C68.8659 32.025 69.4642 32.9163 69.8724 33.8979C70.2806 34.8796 70.4908 35.9322 70.4908 36.9954C70.4908 38.0585 70.2806 39.1112 69.8724 40.0928C69.4642 41.0745 68.8659 41.9657 68.1121 42.7154L65.5454 45.2821C64.0435 46.7924 63.1999 48.8354 63.1987 50.9654V54.632C63.1987 56.7715 62.3488 58.8233 60.836 60.336C59.3233 61.8488 57.2715 62.6987 55.132 62.6987H51.4654C49.3354 62.6999 47.2924 63.5435 45.7821 65.0454L43.2154 67.6121C42.4657 68.3659 41.5745 68.9642 40.5928 69.3724C39.6112 69.7806 38.5585 69.9908 37.4954 69.9908C36.4322 69.9908 35.3796 69.7806 34.3979 69.3724C33.4163 68.9642 32.525 68.3659 31.7754 67.6121L29.2087 65.0454C27.6984 63.5435 25.6553 62.6999 23.5254 62.6987H19.8587C17.7193 62.6987 15.6675 61.8488 14.1547 60.336C12.6419 58.8233 11.7921 56.7715 11.7921 54.632V50.9654C11.7908 48.8354 10.9473 46.7924 9.4454 45.2821L6.8787 42.7154C6.1249 41.9657 5.5266 41.0745 5.1184 40.0928C4.7102 39.1112 4.5 38.0585 4.5 36.9954C4.5 35.9322 4.7102 34.8796 5.1184 33.8979C5.5266 32.9163 6.1249 32.025 6.8787 31.2754L9.4454 28.7087C10.9473 27.1984 11.7908 25.1553 11.7921 23.0254V19.3587Z" fill="#FACC15" stroke="#FACC15" stroke-width="7.33333" stroke-linecap="round" stroke-linejoin="round"/>
</g>
<path d="M27.9648 25.1157L47.2485 48.0971" stroke="black" stroke-width="8" stroke-linecap="round"/>
<path d="M47.0347 25.116L27.751 48.0973" stroke="black" stroke-width="8" stroke-linecap="round"/>
</g>
<defs>
<clipPath id="clip0_831_871">
<rect width="75" height="74" fill="white"/>
</clipPath>
</defs>
</svg>
