<svg width="89" height="88" viewBox="0 0 89 88" fill="none" xmlns="http://www.w3.org/2000/svg">
<mask id="mask0_831_871" style="mask-type:luminance" maskUnits="userSpaceOnUse" x="1" y="0" width="88" height="88">
<path d="M89 0H1V88H89V0Z" fill="white"/>
</mask>
<g mask="url(#mask0_831_871)">
<path d="M18.7921 26.3587C18.7921 24.2193 19.6419 22.1675 21.1547 20.6547C22.6675 19.1419 24.7193 18.2921 26.8587 18.2921H30.5254C32.6553 18.2908 34.6984 17.4473 36.2087 15.9454L38.7754 13.3787C39.525 12.6249 40.4163 12.0266 41.3979 11.6184C42.3796 11.2102 43.4322 11 44.4954 11C45.5585 11 46.6112 11.2102 47.5928 11.6184C48.5745 12.0266 49.4657 12.6249 50.2154 13.3787L52.7821 15.9454C54.2927 17.4487 56.3387 18.2921 58.4654 18.2921H62.132C64.2715 18.2921 66.3233 19.1419 67.836 20.6547C69.3488 22.1675 70.1987 24.2193 70.1987 26.3587V30.0254C70.1987 32.1521 71.0421 34.1981 72.5454 35.7087L75.1121 38.2754C75.8659 39.025 76.4642 39.9163 76.8724 40.8979C77.2806 41.8796 77.4908 42.9322 77.4908 43.9954C77.4908 45.0585 77.2806 46.1112 76.8724 47.0928C76.4642 48.0745 75.8659 48.9657 75.1121 49.7154L72.5454 52.2821C71.0435 53.7924 70.1999 55.8354 70.1987 57.9654V61.632C70.1987 63.7715 69.3488 65.8233 67.836 67.336C66.3233 68.8488 64.2715 69.6987 62.132 69.6987H58.4654C56.3354 69.6999 54.2924 70.5435 52.7821 72.0454L50.2154 74.6121C49.4657 75.3659 48.5745 75.9642 47.5928 76.3724C46.6112 76.7806 45.5585 76.9908 44.4954 76.9908C43.4322 76.9908 42.3796 76.7806 41.3979 76.3724C40.4163 75.9642 39.525 75.3659 38.7754 74.6121L36.2087 72.0454C34.6984 70.5435 32.6553 69.6999 30.5254 69.6987H26.8587C24.7193 69.6987 22.6675 68.8488 21.1547 67.336C19.6419 65.8233 18.7921 63.7715 18.7921 61.632V57.9654C18.7908 55.8354 17.9473 53.7924 16.4454 52.2821L13.8787 49.7154C13.1249 48.9657 12.5266 48.0745 12.1184 47.0928C11.7102 46.1112 11.5 45.0585 11.5 43.9954C11.5 42.9322 11.7102 41.8796 12.1184 40.8979C12.5266 39.9163 13.1249 39.025 13.8787 38.2754L16.4454 35.7087C17.9473 34.1984 18.7908 32.1553 18.7921 30.0254V26.3587Z" fill="#FACC15" stroke="#FACC15" stroke-width="7.33333" stroke-linecap="round" stroke-linejoin="round"/>
</g>
<path d="M34.9648 32.1157L54.2485 55.0971" stroke="black" stroke-width="8" stroke-linecap="round"/>
<path d="M54.0347 32.116L34.751 55.0973" stroke="black" stroke-width="8" stroke-linecap="round"/>
</svg>
