<svg width="17" height="17" viewBox="0 0 17 17" fill="none" xmlns="http://www.w3.org/2000/svg">
<g clip-path="url(#clip0_1_587)">
<path fill-rule="evenodd" clip-rule="evenodd" d="M11.6402 4.68443C10.8079 4.00443 9.74866 3.58887 8.57588 3.58887C6.39263 3.58887 4.55289 4.99798 3.90748 6.95714L1.10645 4.81816C2.46005 2.06983 5.28682 0.188873 8.57588 0.188873C10.6944 0.188873 12.586 0.982207 14.0614 2.26665L11.6402 4.68443ZM3.90745 6.95725C3.74742 7.44269 3.65776 7.96025 3.65776 8.50009C3.65776 9.03729 3.74628 9.55296 3.9048 10.0361L1.10527 12.1793C0.560121 11.0716 0.25293 9.82345 0.25293 8.50009C0.25293 7.1756 0.560499 5.92667 1.10641 4.81827L3.90745 6.95725ZM8.57588 13.4111C6.39263 13.4111 4.55289 12.002 3.90749 10.0429L1.10645 12.1815C2.46005 14.9302 5.28682 16.8111 8.57588 16.8111C10.6059 16.8111 12.544 16.0903 13.9986 14.7398L11.3399 12.6843C10.5897 13.1569 9.645 13.4111 8.57588 13.4111ZM16.3316 6.98892C16.4451 7.48003 16.5208 8.00892 16.5208 8.50003C16.5208 11.2091 15.5269 13.3216 13.9989 14.7398L11.3401 12.6843C12.2095 12.1365 12.8171 11.2948 13.0403 10.2H8.57617V6.98892H16.3316Z" fill="white"/>
</g>
<defs>
<clipPath id="clip0_1_587">
<rect width="17" height="17" fill="white"/>
</clipPath>
</defs>
</svg>
