<svg width="120" height="43" viewBox="0 0 120 43" fill="none" xmlns="http://www.w3.org/2000/svg">
<path d="M100.228 18.6014L84.7136 2.80494C84.1495 2.33481 83.0211 0.125213 85.5599 0.125183C89.3679 0.125183 97.3226 0.153391 98.6766 0.266223C100.031 0.379055 100.745 0.78337 100.933 0.971424C106.434 6.04887 117.773 16.7115 119.127 18.7425C120.481 20.7734 119.692 22.5035 119.127 23.1147C113.862 28.1922 103.372 39.159 101.638 40.6037C99.9459 42.0141 98.4415 42.7663 97.6893 42.7193H84.5726C82.0903 42.7193 82.3159 41.4969 82.739 40.8858L100.228 23.3968C102.372 21.253 101.121 19.3066 100.228 18.6014Z" fill="#FACC15"/>
<path fill-rule="evenodd" clip-rule="evenodd" d="M84.3608 2.12908C84.5016 2.39361 84.6687 2.605 84.7932 2.70878L84.798 2.71277L100.311 18.5081C100.774 18.8757 101.327 19.5611 101.489 20.4368C101.654 21.3255 101.413 22.3884 100.316 23.4853L82.8352 40.9661C82.6358 41.2586 82.5106 41.658 82.6765 41.9734C82.8424 42.2887 83.3386 42.5941 84.572 42.5941H97.6927L97.6966 42.5943C98.0363 42.6156 98.5743 42.4538 99.2525 42.0972C99.9247 41.7437 100.717 41.2084 101.558 40.5075C102.418 39.7904 105.467 36.6948 108.969 33.1337L109.327 32.7692C112.731 29.3072 116.493 25.481 119.037 23.0272C119.57 22.448 120.337 20.7833 119.023 18.8119C118.692 18.3161 117.739 17.2781 116.397 15.9106C115.059 14.5473 113.343 12.8663 111.498 11.0895C107.807 7.53613 103.598 3.60174 100.848 1.0634L100.846 1.0617L100.844 1.05993C100.768 0.983749 100.561 0.843489 100.198 0.707879C99.838 0.573533 99.3322 0.446511 98.6657 0.390964C97.3185 0.278698 89.3718 0.250356 85.5593 0.250356C84.9396 0.250364 84.5697 0.385678 84.3597 0.571538C84.1538 0.753743 84.0815 1.0026 84.0976 1.28156C84.1138 1.5632 84.2205 1.86557 84.3608 2.12908ZM84.1938 0.384044C84.4686 0.140905 84.9097 7.73727e-06 85.5593 0C89.363 0 97.3257 0.0280746 98.6865 0.141472C99.3739 0.198758 99.9024 0.330309 100.285 0.473342C100.663 0.614322 100.907 0.7693 101.019 0.881033C103.77 3.42019 107.98 7.35494 111.672 10.9092C113.518 12.6866 115.235 14.3695 116.576 15.7352C117.912 17.0969 118.885 18.1533 119.231 18.673C120.623 20.7606 119.815 22.554 119.219 23.1996L119.216 23.2023L119.214 23.2048C116.672 25.6561 112.911 29.4815 109.504 32.946L109.147 33.3092C105.654 36.8622 102.591 39.9723 101.718 40.6998C100.867 41.4093 100.06 41.9554 99.369 42.3188C98.686 42.678 98.0973 42.8688 97.685 42.8445H84.572C83.3232 42.8445 82.6911 42.5387 82.455 42.09C82.2207 41.6447 82.4155 41.1324 82.6356 40.8145L82.642 40.8052L100.139 23.3083C101.186 22.2614 101.391 21.2792 101.243 20.4825C101.094 19.6767 100.579 19.0386 100.15 18.6997L100.144 18.6948L84.628 2.89695C84.4715 2.76477 84.2883 2.52576 84.1398 2.24671C83.9892 1.96369 83.8667 1.62551 83.8477 1.29598C83.8285 0.963771 83.9149 0.630839 84.1938 0.384044Z" fill="#FACC15"/>
<path d="M75.5137 28.1921V15.5755H78.8486V17.8015H78.9964C79.2592 17.0622 79.6973 16.479 80.3106 16.0519C80.9239 15.6248 81.6577 15.4112 82.512 15.4112C83.3772 15.4112 84.1137 15.6275 84.7215 16.0601C85.3294 16.4872 85.7346 17.0677 85.9372 17.8015H86.0686C86.326 17.0786 86.7915 16.5009 87.465 16.0683C88.144 15.6302 88.9463 15.4112 89.8717 15.4112C91.0491 15.4112 92.0046 15.7863 92.7384 16.5365C93.4776 17.2812 93.8473 18.3381 93.8473 19.7071V28.1921H90.3563V20.3971C90.3563 19.6962 90.1702 19.1705 89.7978 18.82C89.4254 18.4695 88.96 18.2943 88.4014 18.2943C87.7662 18.2943 87.2706 18.4969 86.9147 18.9021C86.5587 19.3019 86.3808 19.8303 86.3808 20.4874V28.1921H82.9884V20.3232C82.9884 19.7044 82.8104 19.2115 82.4545 18.8446C82.104 18.4777 81.6413 18.2943 81.0663 18.2943C80.6775 18.2943 80.3271 18.3929 80.0149 18.59C79.7083 18.7817 79.4646 19.0527 79.2839 19.4032C79.1032 19.7482 79.0128 20.1534 79.0128 20.6189V28.1921H75.5137Z" fill="white"/>
<path d="M67.4365 28.1922V15.5755H70.8289V17.7769H70.9603C71.1903 16.9938 71.5764 16.4024 72.1185 16.0027C72.6606 15.5974 73.2849 15.3948 73.9913 15.3948C74.1665 15.3948 74.3554 15.4058 74.558 15.4277C74.7607 15.4496 74.9386 15.4797 75.092 15.518V18.6229C74.9277 18.5736 74.7004 18.5298 74.4102 18.4915C74.12 18.4532 73.8544 18.434 73.6134 18.434C73.0987 18.434 72.6387 18.5463 72.2335 18.7708C71.8337 18.9898 71.5161 19.2965 71.2807 19.6907C71.0507 20.085 70.9357 20.5395 70.9357 21.0543V28.1922H67.4365Z" fill="white"/>
<path d="M60.3397 28.4386C59.0637 28.4386 57.9603 28.1675 57.0294 27.6254C56.104 27.0778 55.3894 26.3166 54.8856 25.3419C54.3818 24.3617 54.1299 23.2254 54.1299 21.9331C54.1299 20.6298 54.3818 19.4908 54.8856 18.5161C55.3894 17.5359 56.104 16.7747 57.0294 16.2326C57.9603 15.685 59.0637 15.4112 60.3397 15.4112C61.6156 15.4112 62.7162 15.685 63.6417 16.2326C64.5726 16.7747 65.29 17.5359 65.7937 18.5161C66.2975 19.4908 66.5494 20.6298 66.5494 21.9331C66.5494 23.2254 66.2975 24.3617 65.7937 25.3419C65.29 26.3166 64.5726 27.0778 63.6417 27.6254C62.7162 28.1675 61.6156 28.4386 60.3397 28.4386ZM60.3561 25.728C60.9365 25.728 61.4212 25.5637 61.81 25.2351C62.1988 24.9011 62.4917 24.4466 62.6889 23.8716C62.8915 23.2966 62.9928 22.6422 62.9928 21.9085C62.9928 21.1747 62.8915 20.5203 62.6889 19.9453C62.4917 19.3703 62.1988 18.9158 61.81 18.5818C61.4212 18.2478 60.9365 18.0807 60.3561 18.0807C59.7702 18.0807 59.2773 18.2478 58.8776 18.5818C58.4833 18.9158 58.1849 19.3703 57.9822 19.9453C57.7851 20.5203 57.6865 21.1747 57.6865 21.9085C57.6865 22.6422 57.7851 23.2966 57.9822 23.8716C58.1849 24.4466 58.4833 24.9011 58.8776 25.2351C59.2773 25.5637 59.7702 25.728 60.3561 25.728Z" fill="white"/>
<path d="M43.4883 28.1922V11.3699H54.6264V14.3023H47.0449V18.3107H53.8872V21.2431H47.0449V28.1922H43.4883Z" fill="white"/>
<path d="M42.26 15.5755V18.204H34.6621V15.5755H42.26ZM36.387 12.5528H39.8862V24.3152C39.8862 24.6383 39.9355 24.8902 40.0341 25.0709C40.1326 25.2461 40.2695 25.3693 40.4448 25.4405C40.6255 25.5117 40.8335 25.5473 41.069 25.5473C41.2333 25.5473 41.3976 25.5336 41.5619 25.5062C41.7261 25.4734 41.8521 25.4487 41.9397 25.4323L42.49 28.0362C42.3148 28.0909 42.0684 28.1539 41.7508 28.2251C41.4332 28.3017 41.0471 28.3483 40.5926 28.3647C39.7493 28.3976 39.01 28.2853 38.3748 28.0279C37.7451 27.7706 37.255 27.3708 36.9045 26.8287C36.5541 26.2866 36.3816 25.6021 36.387 24.7752V12.5528Z" fill="white"/>
<path d="M34.4457 19.1732L31.2422 19.3703C31.1875 19.0965 31.0697 18.8501 30.889 18.6311C30.7083 18.4066 30.4701 18.2286 30.1744 18.0972C29.8842 17.9603 29.5364 17.8918 29.1312 17.8918C28.5891 17.8918 28.1319 18.0068 27.7595 18.2368C27.3871 18.4613 27.2009 18.7625 27.2009 19.1403C27.2009 19.4415 27.3214 19.6962 27.5624 19.9042C27.8033 20.1123 28.2167 20.2793 28.8027 20.4053L31.0862 20.8653C32.3128 21.1172 33.2273 21.5224 33.8296 22.0809C34.432 22.6395 34.7332 23.3733 34.7332 24.2823C34.7332 25.1092 34.4895 25.8347 34.0021 26.459C33.5202 27.0833 32.8576 27.5706 32.0143 27.9211C31.1765 28.2661 30.21 28.4386 29.1148 28.4386C27.4446 28.4386 26.114 28.0908 25.1228 27.3954C24.1371 26.6945 23.5594 25.7416 23.3896 24.5369L26.8313 24.3562C26.9354 24.8655 27.1872 25.2543 27.587 25.5226C27.9867 25.7855 28.4987 25.9169 29.123 25.9169C29.7363 25.9169 30.2292 25.7991 30.6015 25.5637C30.9794 25.3227 31.171 25.0133 31.1765 24.6355C31.171 24.3179 31.0369 24.0578 30.774 23.8552C30.5112 23.6471 30.1059 23.4883 29.5583 23.3788L27.3734 22.9434C26.1413 22.697 25.2241 22.2699 24.6217 21.662C24.0249 21.0542 23.7264 20.2793 23.7264 19.3375C23.7264 18.527 23.9455 17.8288 24.3835 17.2429C24.8271 16.657 25.4486 16.2052 26.2481 15.8876C27.0531 15.57 27.995 15.4112 29.0737 15.4112C30.6672 15.4112 31.9212 15.748 32.8357 16.4215C33.7557 17.0951 34.2923 18.0123 34.4457 19.1732Z" fill="white"/>
<path d="M15.5163 28.4304C14.7113 28.4304 13.994 28.2907 13.3642 28.0114C12.7345 27.7267 12.2362 27.3078 11.8693 26.7547C11.5079 26.1962 11.3271 25.5007 11.3271 24.6684C11.3271 23.9674 11.4558 23.3788 11.7132 22.9023C11.9706 22.4259 12.321 22.0426 12.7646 21.7524C13.2081 21.4622 13.7119 21.2431 14.276 21.0953C14.8455 20.9474 15.4424 20.8434 16.0666 20.7831C16.8004 20.7065 17.3918 20.6353 17.8408 20.5696C18.2899 20.4984 18.6157 20.3943 18.8183 20.2574C19.0209 20.1205 19.1222 19.9179 19.1222 19.6496V19.6003C19.1222 19.0801 18.9579 18.6776 18.6294 18.3929C18.3063 18.1081 17.8463 17.9657 17.2494 17.9657C16.6197 17.9657 16.1186 18.1054 15.7463 18.3847C15.3739 18.6585 15.1275 19.0034 15.007 19.4196L11.7707 19.1568C11.935 18.3901 12.2581 17.7275 12.74 17.169C13.2218 16.605 13.8434 16.1724 14.6045 15.8712C15.3712 15.5645 16.2583 15.4112 17.2659 15.4112C17.9668 15.4112 18.6376 15.4933 19.2783 15.6576C19.9244 15.8219 20.4967 16.0765 20.995 16.4215C21.4988 16.7665 21.8958 17.2101 22.186 17.7522C22.4763 18.2888 22.6214 18.9323 22.6214 19.6825V28.1922H19.3029V26.4426H19.2044C19.0017 26.8368 18.7307 27.1846 18.3912 27.4857C18.0517 27.7815 17.6437 28.0142 17.1673 28.1839C16.6909 28.3482 16.1405 28.4304 15.5163 28.4304ZM16.5184 26.0154C17.0331 26.0154 17.4876 25.9141 17.8819 25.7115C18.2762 25.5034 18.5856 25.2242 18.8101 24.8737C19.0346 24.5232 19.1469 24.1262 19.1469 23.6827V22.3438C19.0373 22.415 18.8868 22.4807 18.6951 22.5409C18.5089 22.5957 18.2981 22.6477 18.0626 22.697C17.8271 22.7408 17.5917 22.7819 17.3562 22.8202C17.1207 22.8531 16.9072 22.8832 16.7155 22.9106C16.3048 22.9708 15.9461 23.0666 15.6395 23.198C15.3328 23.3295 15.0946 23.5074 14.9249 23.732C14.7551 23.951 14.6702 24.2248 14.6702 24.5534C14.6702 25.0298 14.8427 25.3939 15.1877 25.6458C15.5382 25.8922 15.9817 26.0154 16.5184 26.0154Z" fill="white"/>
<path d="M0 28.1922V11.3699H11.1382V14.3023H3.55665V18.3107H10.3989V21.2431H3.55665V28.1922H0Z" fill="white"/>
<path fill-rule="evenodd" clip-rule="evenodd" d="M19.4453 3.93323C19.4453 3.17276 20.0618 2.55627 20.8223 2.55627H24.4893C25.2498 2.55627 25.8663 3.17276 25.8663 3.93323C25.8663 4.69371 25.2498 5.3102 24.4893 5.3102H20.8223C20.0618 5.3102 19.4453 4.69371 19.4453 3.93323Z" fill="#FACC15"/>
<path fill-rule="evenodd" clip-rule="evenodd" d="M20.0098 9.85694C20.0098 9.09647 20.6263 8.47998 21.3867 8.47998H32.952C33.7125 8.47998 34.329 9.09647 34.329 9.85694C34.329 10.6174 33.7125 11.2339 32.952 11.2339H21.3867C20.6263 11.2339 20.0098 10.6174 20.0098 9.85694Z" fill="#FACC15"/>
<path fill-rule="evenodd" clip-rule="evenodd" d="M37.498 3.93323C37.498 3.17276 38.1145 2.55627 38.875 2.55627H47.3374C48.0979 2.55627 48.7144 3.17276 48.7144 3.93323C48.7144 4.69371 48.0979 5.3102 47.3374 5.3102H38.875C38.1145 5.3102 37.498 4.69371 37.498 3.93323Z" fill="#FACC15"/>
<path fill-rule="evenodd" clip-rule="evenodd" d="M56.9619 3.93323C56.9619 3.17276 57.5784 2.55627 58.3389 2.55627H77.5203C78.2808 2.55627 78.8973 3.17276 78.8973 3.93323C78.8973 4.69371 78.2808 5.3102 77.5203 5.3102H58.3389C57.5784 5.3102 56.9619 4.69371 56.9619 3.93323Z" fill="#FACC15"/>
<path fill-rule="evenodd" clip-rule="evenodd" d="M73.3223 9.85694C73.3223 9.09647 73.9388 8.47998 74.6992 8.47998L81.7512 8.47998C82.5117 8.47998 83.1282 9.09647 83.1282 9.85694C83.1282 10.6174 82.5117 11.2339 81.7512 11.2339L74.6992 11.2339C73.9388 11.2339 73.3223 10.6174 73.3223 9.85694Z" fill="#FACC15"/>
<path fill-rule="evenodd" clip-rule="evenodd" d="M59.2187 33.8337C59.2187 33.0733 59.8352 32.4568 60.5957 32.4568L80.0592 32.4568C80.8197 32.4568 81.4362 33.0733 81.4362 33.8337C81.4362 34.5942 80.8197 35.2107 80.0592 35.2107L60.5957 35.2107C59.8352 35.2107 59.2187 34.5942 59.2187 33.8337Z" fill="#FACC15"/>
<path fill-rule="evenodd" clip-rule="evenodd" d="M45.3965 39.7575C45.3965 38.997 46.013 38.3805 46.7734 38.3805L74.6994 38.3805C75.4599 38.3805 76.0763 38.997 76.0763 39.7575C76.0763 40.5179 75.4599 41.1344 74.6994 41.1344L46.7734 41.1344C46.013 41.1344 45.3965 40.5179 45.3965 39.7575Z" fill="#FACC15"/>
<path fill-rule="evenodd" clip-rule="evenodd" d="M36.3701 33.8337C36.3701 33.0733 36.9866 32.4568 37.7471 32.4568L48.7482 32.4568C49.5087 32.4568 50.1252 33.0733 50.1252 33.8337C50.1252 34.5942 49.5087 35.2107 48.7482 35.2107L37.7471 35.2107C36.9866 35.2107 36.3701 34.5942 36.3701 33.8337Z" fill="#FACC15"/>
<path fill-rule="evenodd" clip-rule="evenodd" d="M28.4717 39.4753C28.4717 38.7149 29.0882 38.0984 29.8486 38.0984L34.9261 38.0984C35.6866 38.0984 36.303 38.7149 36.303 39.4753C36.303 40.2358 35.6866 40.8523 34.9261 40.8523L29.8486 40.8523C29.0882 40.8523 28.4717 40.2358 28.4717 39.4753Z" fill="#FACC15"/>
<path fill-rule="evenodd" clip-rule="evenodd" d="M5.62305 33.8337C5.62305 33.0733 6.23953 32.4568 7.00001 32.4568L23.9248 32.4568C24.6853 32.4568 25.3018 33.0733 25.3018 33.8337C25.3018 34.5942 24.6853 35.2107 23.9248 35.2107L7.00001 35.2107C6.23953 35.2107 5.62305 34.5942 5.62305 33.8337Z" fill="#FACC15"/>
<path fill-rule="evenodd" clip-rule="evenodd" d="M66.2705 9.85694C66.2705 9.09647 66.887 8.47998 67.6475 8.47998H68.4937C69.2542 8.47998 69.8707 9.09647 69.8707 9.85694C69.8707 10.6174 69.2542 11.2339 68.4937 11.2339H67.6475C66.887 11.2339 66.2705 10.6174 66.2705 9.85694Z" fill="#FACC15"/>
</svg>
