
<svg width="74" height="74" viewBox="0 0 74 74" fill="none" xmlns="http://www.w3.org/2000/svg">
<g clip-path="url(#clip0_1412_936)">
<mask id="mask0_1412_936" style="mask-type:luminance" maskUnits="userSpaceOnUse" x="-7" y="-7" width="89" height="88">
<path d="M81.5 -7H-6.5V81H81.5V-7Z" fill="white"/>
</mask>
<g mask="url(#mask0_1412_936)">
<path d="M11.2921 19.3587C11.2921 17.2193 12.1419 15.1675 13.6547 13.6547C15.1675 12.1419 17.2193 11.2921 19.3587 11.2921H23.0254C25.1553 11.2908 27.1984 10.4473 28.7087 8.9454L31.2754 6.3787C32.025 5.6249 32.9163 5.0266 33.8979 4.6184C34.8796 4.2102 35.9322 4 36.9954 4C38.0585 4 39.1112 4.2102 40.0928 4.6184C41.0745 5.0266 41.9657 5.6249 42.7154 6.3787L45.2821 8.9454C46.7927 10.4487 48.8387 11.2921 50.9654 11.2921H54.632C56.7715 11.2921 58.8233 12.1419 60.336 13.6547C61.8488 15.1675 62.6987 17.2193 62.6987 19.3587V23.0254C62.6987 25.1521 63.5421 27.1981 65.0454 28.7087L67.6121 31.2754C68.3659 32.025 68.9642 32.9163 69.3724 33.8979C69.7806 34.8796 69.9908 35.9322 69.9908 36.9954C69.9908 38.0585 69.7806 39.1112 69.3724 40.0928C68.9642 41.0745 68.3659 41.9657 67.6121 42.7154L65.0454 45.2821C63.5435 46.7924 62.6999 48.8354 62.6987 50.9654V54.632C62.6987 56.7715 61.8488 58.8233 60.336 60.336C58.8233 61.8488 56.7715 62.6987 54.632 62.6987H50.9654C48.8354 62.6999 46.7924 63.5435 45.2821 65.0454L42.7154 67.6121C41.9657 68.3659 41.0745 68.9642 40.0928 69.3724C39.1112 69.7806 38.0585 69.9908 36.9954 69.9908C35.9322 69.9908 34.8796 69.7806 33.8979 69.3724C32.9163 68.9642 32.025 68.3659 31.2754 67.6121L28.7087 65.0454C27.1984 63.5435 25.1553 62.6999 23.0254 62.6987H19.3587C17.2193 62.6987 15.1675 61.8488 13.6547 60.336C12.1419 58.8233 11.2921 56.7715 11.2921 54.632V50.9654C11.2908 48.8354 10.4473 46.7924 8.9454 45.2821L6.3787 42.7154C5.6249 41.9657 5.0266 41.0745 4.6184 40.0928C4.2102 39.1112 4 38.0585 4 36.9954C4 35.9322 4.2102 34.8796 4.6184 33.8979C5.0266 32.9163 5.6249 32.025 6.3787 31.2754L8.9454 28.7087C10.4473 27.1984 11.2908 25.1553 11.2921 23.0254V19.3587Z" fill="#FACC15" stroke="#FACC15" stroke-width="7.33333" stroke-linecap="round" stroke-linejoin="round"/>
</g>
<path d="M23 51C22.0375 51 21.2135 50.6573 20.5281 49.9719C19.8427 49.2865 19.5 48.4625 19.5 47.5V26.5C19.5 25.5375 19.8427 24.7135 20.5281 24.0281C21.2135 23.3427 22.0375 23 23 23H51C51.9625 23 52.7865 23.3427 53.4719 24.0281C54.1573 24.7135 54.5 25.5375 54.5 26.5V47.5C54.5 48.4625 54.1573 49.2865 53.4719 49.9719C52.7865 50.6573 51.9625 51 51 51H23ZM37 38.75L23 30V47.5H51V30L37 38.75ZM37 35.25L51 26.5H23L37 35.25ZM23 30V26.5V47.5V30Z" fill="black"/>
</g>
<defs>
<clipPath id="clip0_1412_936">
<rect width="74" height="74" fill="white"/>
</clipPath>
</defs>
</svg>
