<svg width="89" height="88" viewBox="0 0 89 88" fill="none" xmlns="http://www.w3.org/2000/svg">
<g clip-path="url(#clip0_657_1638)">
<path d="M18.2921 26.3587C18.2921 24.2193 19.1419 22.1675 20.6547 20.6547C22.1675 19.1419 24.2193 18.2921 26.3587 18.2921H30.0254C32.1553 18.2908 34.1984 17.4473 35.7087 15.9454L38.2754 13.3787C39.025 12.6249 39.9163 12.0266 40.8979 11.6184C41.8796 11.2102 42.9322 11 43.9954 11C45.0585 11 46.1112 11.2102 47.0928 11.6184C48.0745 12.0266 48.9657 12.6249 49.7154 13.3787L52.2821 15.9454C53.7927 17.4487 55.8387 18.2921 57.9654 18.2921H61.632C63.7715 18.2921 65.8233 19.1419 67.336 20.6547C68.8488 22.1675 69.6987 24.2193 69.6987 26.3587V30.0254C69.6987 32.1521 70.5421 34.1981 72.0454 35.7087L74.6121 38.2754C75.3659 39.025 75.9642 39.9163 76.3724 40.8979C76.7806 41.8796 76.9908 42.9322 76.9908 43.9954C76.9908 45.0585 76.7806 46.1112 76.3724 47.0928C75.9642 48.0745 75.3659 48.9657 74.6121 49.7154L72.0454 52.2821C70.5435 53.7924 69.6999 55.8354 69.6987 57.9654V61.632C69.6987 63.7715 68.8488 65.8233 67.336 67.336C65.8233 68.8488 63.7715 69.6987 61.632 69.6987H57.9654C55.8354 69.6999 53.7924 70.5435 52.2821 72.0454L49.7154 74.6121C48.9657 75.3659 48.0745 75.9642 47.0928 76.3724C46.1112 76.7806 45.0585 76.9908 43.9954 76.9908C42.9322 76.9908 41.8796 76.7806 40.8979 76.3724C39.9163 75.9642 39.025 75.3659 38.2754 74.6121L35.7087 72.0454C34.1984 70.5435 32.1553 69.6999 30.0254 69.6987H26.3587C24.2193 69.6987 22.1675 68.8488 20.6547 67.336C19.1419 65.8233 18.2921 63.7715 18.2921 61.632V57.9654C18.2908 55.8354 17.4473 53.7924 15.9454 52.2821L13.3787 49.7154C12.6249 48.9657 12.0266 48.0745 11.6184 47.0928C11.2102 46.1112 11 45.0585 11 43.9954C11 42.9322 11.2102 41.8796 11.6184 40.8979C12.0266 39.9163 12.6249 39.025 13.3787 38.2754L15.9454 35.7087C17.4473 34.1984 18.2908 32.1553 18.2921 30.0254V26.3587Z" fill="#FACC15" stroke="#FACC15" stroke-width="7.33333" stroke-linecap="round" stroke-linejoin="round"/>
<path d="M33.5 44L40.8333 51.3333L55.5 36.6666" stroke="black" stroke-width="7.33333" stroke-linecap="round" stroke-linejoin="round"/>
</g>
<defs>
<clipPath id="clip0_657_1638">
<rect width="88" height="88" fill="white" transform="translate(0.5)"/>
</clipPath>
</defs>
</svg>
